<?xml version="1.0" encoding="UTF-8"?>
<svg xmlns="http://www.w3.org/2000/svg" xmlns:xlink="http://www.w3.org/1999/xlink" width="98pt" height="98pt" viewBox="0 0 98 98" version="1.1">
<g id="surface8691521">
<rect x="0" y="0" width="98" height="98" style="fill:rgb(100%,100%,100%);fill-opacity:1;stroke:none;"/>
<path style=" stroke:none;fill-rule:evenodd;fill:rgb(0%,32.941176%,61.568627%);fill-opacity:1;" d="M 47.207031 15.167969 C 48.316406 14.542969 49.683594 14.542969 50.789062 15.167969 C 56.269531 18.242188 72.761719 27.5 78.242188 30.574219 C 79.351562 31.195312 80.035156 32.347656 80.035156 33.589844 C 80.035156 39.742188 80.035156 58.257812 80.035156 64.40625 C 80.035156 65.652344 79.351562 66.800781 78.242188 67.425781 C 72.761719 70.5 56.273438 79.757812 50.789062 82.832031 C 49.679688 83.453125 48.316406 83.453125 47.207031 82.832031 C 41.726562 79.757812 25.238281 70.5 19.757812 67.425781 C 18.648438 66.800781 17.964844 65.652344 17.964844 64.410156 C 17.964844 58.257812 17.964844 39.742188 17.964844 33.59375 C 17.964844 32.347656 18.648438 31.199219 19.757812 30.574219 C 25.238281 27.5 41.730469 18.242188 47.207031 15.167969 Z M 47.207031 15.167969 "/>
<path style=" stroke:none;fill-rule:evenodd;fill:rgb(0%,52.54902%,83.137255%);fill-opacity:1;" d="M 18.464844 65.992188 C 18.027344 65.410156 17.964844 64.859375 17.964844 64.117188 C 17.964844 58 17.964844 39.59375 17.964844 33.476562 C 17.964844 32.238281 18.648438 31.09375 19.753906 30.476562 C 25.214844 27.421875 41.648438 18.214844 47.109375 15.15625 C 48.214844 14.539062 49.710938 14.550781 50.816406 15.171875 C 56.277344 18.226562 72.65625 27.351562 78.117188 30.410156 C 78.558594 30.660156 78.894531 30.957031 79.195312 31.351562 Z M 18.464844 65.992188 "/>
<path style=" stroke:none;fill-rule:evenodd;fill:rgb(100%,100%,100%);fill-opacity:1;" d="M 49 26.132812 C 61.621094 26.132812 71.867188 36.378906 71.867188 49 C 71.867188 61.621094 61.621094 71.867188 49 71.867188 C 36.378906 71.867188 26.132812 61.621094 26.132812 49 C 26.132812 36.378906 36.378906 26.132812 49 26.132812 Z M 49 37.566406 C 55.308594 37.566406 60.433594 42.6875 60.433594 49 C 60.433594 55.308594 55.308594 60.433594 49 60.433594 C 42.691406 60.433594 37.566406 55.308594 37.566406 49 C 37.566406 42.6875 42.6875 37.566406 49 37.566406 Z M 49 37.566406 "/>
<path style=" stroke:none;fill-rule:evenodd;fill:rgb(0%,45.882353%,75.294118%);fill-opacity:1;" d="M 79.191406 31.367188 C 80.035156 32.15625 80.019531 33.347656 80.019531 34.28125 C 80.019531 40.480469 79.964844 58.109375 80.035156 64.308594 C 80.039062 64.957031 79.824219 65.636719 79.503906 66.148438 L 48.335938 49 Z M 79.191406 31.367188 "/>
<path style=" stroke:none;fill-rule:evenodd;fill:rgb(100%,100%,100%);fill-opacity:1;" d="M 60.433594 44.101562 L 63.699219 44.101562 L 63.699219 53.898438 L 60.433594 53.898438 Z M 71.867188 44.101562 L 75.132812 44.101562 L 75.132812 53.898438 L 71.867188 53.898438 Z M 71.867188 44.101562 "/>
<path style=" stroke:none;fill-rule:evenodd;fill:rgb(100%,100%,100%);fill-opacity:1;" d="M 57.167969 47.367188 L 66.964844 47.367188 L 66.964844 50.632812 L 57.167969 50.632812 Z M 68.601562 47.367188 L 78.398438 47.367188 L 78.398438 50.632812 L 68.601562 50.632812 Z M 68.601562 47.367188 "/>
</g>
</svg>
