<?xml version="1.0" encoding="UTF-8"?>
<svg xmlns="http://www.w3.org/2000/svg" xmlns:xlink="http://www.w3.org/1999/xlink" width="98pt" height="98pt" viewBox="0 0 98 98" version="1.1">
<g id="surface8738397">
<rect x="0" y="0" width="98" height="98" style="fill:rgb(100%,100%,100%);fill-opacity:1;stroke:none;"/>
<path style=" stroke:none;fill-rule:nonzero;fill:rgb(40%,40%,40%);fill-opacity:1;" d="M 78.652344 28.621094 L 52.246094 13.78125 C 50.242188 12.660156 47.757812 12.660156 45.753906 13.78125 L 19.347656 28.621094 C 17.328125 29.753906 16.070312 31.882812 16.070312 34.160156 L 16.070312 63.839844 C 16.070312 66.121094 17.328125 68.246094 19.347656 69.378906 L 45.753906 84.21875 C 46.757812 84.78125 47.878906 85.066406 49 85.066406 C 50.121094 85.066406 51.242188 84.78125 52.246094 84.21875 L 78.652344 69.378906 C 80.671875 68.246094 81.929688 66.121094 81.929688 63.839844 L 81.929688 34.160156 C 81.929688 31.882812 80.671875 29.753906 78.652344 28.621094 Z M 49 67.816406 C 38.625 67.816406 30.183594 59.375 30.183594 49 C 30.183594 38.625 38.625 30.183594 49 30.183594 C 54.929688 30.183594 60.40625 32.933594 63.964844 37.621094 L 57.089844 41.59375 C 55.027344 39.335938 52.09375 38.023438 49 38.023438 C 42.949219 38.023438 38.023438 42.949219 38.023438 49 C 38.023438 55.050781 42.949219 59.976562 49 59.976562 C 52.09375 59.976562 55.027344 58.664062 57.089844 56.40625 L 63.964844 60.378906 C 60.40625 65.066406 54.929688 67.816406 49 67.816406 Z M 67.816406 50.570312 L 64.679688 50.570312 L 64.679688 53.703125 L 61.542969 53.703125 L 61.542969 50.570312 L 58.40625 50.570312 L 58.40625 47.433594 L 61.542969 47.433594 L 61.542969 44.296875 L 64.679688 44.296875 L 64.679688 47.433594 L 67.816406 47.433594 Z M 78.792969 50.570312 L 75.65625 50.570312 L 75.65625 53.703125 L 72.519531 53.703125 L 72.519531 50.570312 L 69.382812 50.570312 L 69.382812 47.433594 L 72.519531 47.433594 L 72.519531 44.296875 L 75.65625 44.296875 L 75.65625 47.433594 L 78.792969 47.433594 Z M 78.792969 50.570312 "/>
</g>
</svg>
